<?xml version="1.0" standalone="no"?>
<!DOCTYPE svg PUBLIC "-//W3C//DTD SVG 20010904//EN"
 "http://www.w3.org/TR/2001/REC-SVG-20010904/DTD/svg10.dtd">
<svg version="1.0" xmlns="http://www.w3.org/2000/svg"
 width="612.000000pt" height="408.000000pt" viewBox="0 0 612.000000 408.000000"
 preserveAspectRatio="xMidYMid meet">

<g transform="translate(0.000000,408.000000) scale(0.100000,-0.100000)"
fill="#000000" stroke="none">
<path d="M0 3331 l0 -371 138 2 c75 1 148 -2 162 -5 14 -4 19 -4 13 -1 -7 3
-13 22 -13 42 0 30 -6 41 -30 57 -16 11 -30 27 -30 35 -1 8 -24 26 -51 40 -28
13 -59 35 -69 47 -10 13 -21 23 -24 23 -4 0 -12 5 -19 10 -7 6 -21 17 -31 24
-21 15 -24 5 29 107 5 10 15 19 21 19 6 0 30 18 53 39 35 33 52 41 96 46 29 4
57 5 62 2 4 -2 18 5 30 17 l23 22 -23 32 c-12 17 -28 32 -35 32 -7 0 -24 11
-37 25 -14 13 -25 21 -25 18 0 -4 -15 6 -32 23 -62 56 -74 63 -113 69 -22 3
-52 8 -67 11 l-28 6 0 -371z"/>
<path d="M320 3000 c0 -5 5 -10 10 -10 6 0 10 5 10 10 0 6 -4 10 -10 10 -5 0
-10 -4 -10 -10z"/>
<path d="M5014 2570 c16 -107 45 -194 106 -320 58 -118 55 -153 -17 -166 -50
-9 -59 -40 -22 -82 18 -20 30 -45 30 -65 1 -23 3 -26 6 -10 7 38 57 83 92 83
19 0 39 9 56 26 26 26 44 28 88 9 13 -5 16 -3 11 8 -3 8 -15 18 -27 21 -12 3
-33 21 -46 41 -34 50 -25 109 22 150 47 42 51 58 17 79 -32 18 -38 32 -44 95
-8 85 -19 54 -13 -39 7 -108 -2 -130 -50 -130 -38 0 -57 22 -77 90 -23 77 -80
191 -111 220 l-26 24 5 -34z"/>
<path d="M4070 2295 c0 -11 -14 -40 -30 -64 -34 -49 -37 -76 -16 -126 8 -19
13 -35 10 -35 -3 0 2 -7 10 -16 9 -8 16 -22 16 -29 0 -19 79 -93 107 -101 24
-6 39 -45 42 -103 2 -48 6 -51 63 -51 42 0 54 4 77 29 24 26 26 34 21 82 -4
47 -8 54 -28 57 -18 3 -23 8 -19 23 3 12 0 19 -9 19 -8 0 -14 4 -14 9 0 5 -16
15 -35 22 -22 8 -43 26 -55 47 -25 42 -25 54 1 70 11 7 18 19 16 26 -3 8 -1
18 5 24 7 7 0 17 -21 33 -20 15 -31 30 -29 43 3 17 -5 22 -47 30 -27 5 -53 14
-57 20 -5 7 -8 3 -8 -9z"/>
<path d="M6080 1950 c0 -5 9 -19 20 -30 20 -20 20 -20 20 0 0 10 -9 24 -20 30
-14 7 -20 7 -20 0z"/>
<path d="M5630 1909 c0 -5 5 -7 10 -4 6 3 10 8 10 11 0 2 -4 4 -10 4 -5 0 -10
-5 -10 -11z"/>
<path d="M5875 1750 c-4 -13 -13 -30 -20 -37 -7 -7 -23 -45 -34 -85 -36 -120
-40 -128 -70 -128 -32 0 -61 31 -68 74 l-5 32 -62 -1 c-60 0 -62 -1 -58 -24 4
-17 -5 -31 -33 -57 l-39 -34 22 -23 c12 -13 22 -33 22 -45 0 -12 9 -39 21 -62
21 -39 21 -40 2 -71 -18 -32 -66 -49 -79 -28 -3 5 -9 7 -14 4 -5 -3 4 -18 18
-33 15 -15 33 -37 40 -47 10 -16 12 -17 8 -2 -3 9 0 17 6 17 6 0 8 3 5 7 -11
10 44 63 66 63 10 0 27 -5 38 -11 31 -16 57 -1 80 44 12 22 28 47 36 55 14 14
13 50 -3 105 -3 9 0 17 6 17 6 0 23 12 37 26 22 22 32 25 63 20 27 -4 41 -2
50 9 14 17 76 20 86 4 4 -8 -3 -9 -24 -4 -25 5 -35 1 -56 -22 -14 -15 -26 -34
-26 -41 0 -7 -10 -23 -22 -35 -30 -30 -78 -148 -78 -193 0 -53 24 -54 71 -5
22 22 44 41 49 41 15 0 22 -81 16 -209 -6 -139 -16 -163 -68 -157 -46 5 -79
68 -43 82 30 12 -3 144 -36 144 -11 0 -19 -4 -19 -10 0 -5 -6 -10 -13 -10 -16
0 -48 -75 -53 -125 -10 -118 -33 -195 -56 -195 -18 0 -21 -8 -22 -60 -1 -35
-32 -39 -40 -5 -8 30 0 48 16 39 7 -4 8 -2 4 4 -4 7 -14 12 -23 12 -14 0 -14
2 -1 18 22 26 50 109 44 130 -6 17 -12 18 -61 9 -48 -9 -57 -8 -75 8 -24 22
-25 21 -34 -27 -4 -24 -3 -38 4 -38 5 0 10 9 10 20 0 11 5 20 11 20 5 0 9 -8
7 -18 -3 -19 42 -112 54 -112 3 0 12 -16 18 -35 11 -33 10 -38 -14 -60 -16
-15 -27 -19 -30 -12 -2 7 -5 2 -5 -10 -1 -12 -4 -28 -7 -37 -5 -13 2 -14 45
-9 41 5 55 2 71 -12 17 -16 20 -16 20 -2 0 23 30 49 49 42 13 -4 23 7 42 47
19 42 30 54 50 56 21 2 28 12 40 50 12 36 21 49 43 57 23 8 30 6 42 -10 26
-36 9 -115 -25 -115 -17 0 -13 -19 9 -47 27 -34 25 -71 -5 -116 -27 -39 -59
-53 -97 -42 -18 5 -20 4 -8 -4 8 -6 22 -11 31 -11 23 0 104 -76 90 -84 -6 -4
-11 -1 -11 6 -1 10 -4 9 -13 -2 -18 -23 -33 -19 -69 23 l-34 38 -57 -28 c-31
-15 -59 -35 -62 -45 -3 -9 -22 -20 -43 -25 l-37 -9 36 -12 c34 -12 35 -14 36
-61 1 -55 -20 -84 -67 -96 -21 -5 -30 1 -63 44 -20 28 -37 55 -37 60 0 6 -13
17 -30 26 -16 8 -42 31 -57 50 -15 19 -31 35 -35 35 -15 0 -8 -27 12 -53 28
-35 25 -71 -6 -96 -28 -22 -64 -28 -64 -11 0 6 6 10 14 10 7 0 21 11 30 25 25
38 19 40 -16 6 -25 -24 -39 -31 -57 -26 -76 19 -81 19 -81 -7 0 -26 -21 -50
-55 -63 -19 -7 -19 -8 5 -18 14 -7 30 -18 35 -25 8 -10 18 -5 43 27 24 30 42
42 70 46 20 4 58 11 84 17 39 10 49 9 62 -5 9 -8 16 -20 16 -25 0 -5 18 -34
40 -66 22 -31 40 -59 40 -63 0 -3 14 -22 30 -43 17 -21 30 -47 30 -59 0 -21 2
-21 270 -21 l270 0 0 125 c0 77 -4 125 -10 125 -5 0 -10 -4 -10 -10 0 -5 -7
-10 -15 -10 -9 0 -12 6 -9 15 3 8 -1 21 -9 30 -20 20 -33 20 -17 0 7 -9 10
-18 7 -21 -3 -3 -14 4 -24 15 -22 27 -39 27 -53 0 -23 -42 -86 -44 -96 -4 -11
45 44 120 81 111 19 -5 22 -2 17 21 -5 25 -4 26 37 19 33 -5 41 -3 41 9 0 8 5
15 10 15 6 0 10 -4 10 -10 0 -5 6 -10 14 -10 8 0 17 -6 19 -12 3 -7 6 181 6
417 1 412 0 431 -19 463 -11 17 -24 32 -29 32 -13 0 -24 67 -14 85 7 13 12 13
36 0 l27 -14 0 165 c0 160 -1 164 -21 164 -11 0 -33 -9 -47 -21 -42 -32 -95
-67 -121 -81 -21 -11 -26 -9 -47 15 -28 33 -29 47 -8 88 8 17 13 36 11 42 -2
7 -7 1 -12 -13z m102 -160 c2 -22 -12 -34 -27 -25 -6 4 -5 13 3 25 15 25 22
25 24 0z m-31 -972 c10 -32 -3 -32 -19 1 -12 23 -12 28 -1 24 7 -3 16 -14 20
-25z m29 -463 c38 -37 44 -68 19 -103 -19 -28 -64 -30 -71 -3 -3 11 -18 24
-34 30 -27 9 -28 11 -17 43 11 31 43 67 61 68 4 0 23 -16 42 -35z"/>
<path d="M6095 1760 c-19 -8 -19 -9 3 -9 12 -1 22 4 22 9 0 6 -1 10 -2 9 -2 0
-12 -4 -23 -9z"/>
<path d="M6055 1740 c-3 -5 -1 -10 4 -10 6 0 11 5 11 10 0 6 -2 10 -4 10 -3 0
-8 -4 -11 -10z"/>
<path d="M4901 1505 c-25 -43 -26 -46 -6 -39 10 4 29 -8 52 -32 30 -33 35 -35
28 -14 -5 14 -9 45 -9 70 -1 38 -4 45 -22 48 -16 2 -27 -7 -43 -33z"/>
<path d="M5014 1217 c-21 -24 -21 -24 -2 -36 25 -16 30 -10 26 29 l-3 32 -21
-25z"/>
<path d="M5588 1133 c-23 -6 -22 -15 0 -53 22 -35 32 -30 32 16 0 18 6 35 13
37 15 7 -21 6 -45 0z"/>
<path d="M5423 1068 l-21 -10 20 -37 c11 -20 21 -37 22 -38 0 -1 2 21 3 48 0
27 0 49 0 48 -1 0 -12 -5 -24 -11z"/>
<path d="M4713 938 c-17 -13 -36 -30 -41 -39 -9 -14 -4 -17 41 -17 36 -1 59 4
75 16 23 18 23 18 4 40 -24 28 -39 28 -79 0z"/>
<path d="M0 265 c0 -95 2 -105 18 -105 23 0 66 -45 58 -59 -4 -6 0 -24 9 -42
9 -17 14 -37 11 -45 -5 -12 58 -14 418 -14 l424 0 -11 33 c-6 17 -19 53 -30
79 l-20 46 -98 1 c-54 0 -107 5 -118 11 -11 5 -40 10 -66 10 -25 0 -71 9 -102
20 -32 11 -72 20 -89 20 -18 0 -34 6 -37 13 -2 7 -15 -1 -33 -22 -49 -59 -67
-71 -100 -71 -118 0 -164 105 -80 185 l21 20 -70 3 c-39 2 -74 7 -79 13 -22
21 -26 4 -26 -96z"/>
<path d="M4835 350 c-18 -20 -18 -21 1 -35 11 -9 31 -13 45 -11 39 7 130 51
123 59 -4 4 -40 7 -79 7 -59 0 -75 -4 -90 -20z"/>
<path d="M6111 344 c0 -11 3 -14 6 -6 3 7 2 16 -1 19 -3 4 -6 -2 -5 -13z"/>
<path d="M4624 309 c-3 -5 -2 -19 1 -30 6 -17 12 -19 33 -14 30 7 49 22 40 30
-12 12 -68 23 -74 14z"/>
<path d="M4840 270 c0 -5 9 -10 20 -10 11 0 20 5 20 10 0 6 -9 10 -20 10 -11
0 -20 -4 -20 -10z"/>
<path d="M4850 205 c-35 -9 -45 -16 -45 -33 0 -11 -4 -24 -8 -28 -4 -4 -7 -16
-7 -26 0 -15 5 -17 28 -12 15 4 33 11 40 17 7 5 29 10 50 11 30 1 38 6 46 27
20 58 -9 70 -104 44z"/>
<path d="M4957 53 c-8 -16 -12 -34 -10 -40 7 -19 45 -15 73 7 14 11 30 20 36
20 6 0 17 6 23 14 10 12 6 13 -27 9 -24 -3 -42 -1 -46 6 -12 19 -35 12 -49
-16z"/>
<path d="M1053 3 c15 -2 37 -2 50 0 12 2 0 4 -28 4 -27 0 -38 -2 -22 -4z"/>
</g>
</svg>
